<svg xmlns="http://www.w3.org/2000/svg" viewBox="0 0 465 260"><defs><style>.cls-1{fill:#385659;}.cls-2{fill:none;stroke:#ec7025;stroke-miterlimit:10;stroke-width:5px;}.cls-3{fill:#fff;}</style></defs><title>infographic-nhex2017</title><g id="infographic"><rect class="cls-1" width="465" height="260"/><line class="cls-2" x1="227.5" y1="52.71" x2="227.5" y2="206.05"/><path class="cls-3" d="M58.12,127.53h3.34v5.08H47.2v-5.08h3.32V106.24H47.2v-4.86H62q6.2,0,9.05,2.33t2.86,7.38q0,5.12-2.89,7.54t-9,2.42H58.12Zm0-21.29V116h1.45q3.36,0,4.83-1.14a5.42,5.42,0,0,0,0-7.43q-1.47-1.14-4.83-1.14Z"/><path class="cls-3" d="M98.64,110.37v17.47h2.92v4.77H92V131a15.94,15.94,0,0,1-3.37,1.69,9.73,9.73,0,0,1-3.15.53,5.48,5.48,0,0,1-4.5-1.91,8.53,8.53,0,0,1-1.56-5.51V115.29H76.27v-4.92h9.87V123.6a7.38,7.38,0,0,0,.52,3.38,2,2,0,0,0,1.86.86,4.33,4.33,0,0,0,1.73-.38,6.34,6.34,0,0,0,1.7-1.11V115.29H88.55v-4.92Z"/><path class="cls-3" d="M113.1,132.61h-9.58v-4.9h2.92V106.15h-2.92v-4.77h9.58v12.15a10.61,10.61,0,0,1,3.19-2.38,8.32,8.32,0,0,1,3.56-.78,8.5,8.5,0,0,1,6.88,3.31,13,13,0,0,1,2.7,8.49,12,12,0,0,1-2.58,8,9,9,0,0,1-10.67,2.16,9,9,0,0,1-3.08-2.67Zm4.68-4.42a4.11,4.11,0,0,0,3.49-1.73,7.86,7.86,0,0,0,1.27-4.76,7.72,7.72,0,0,0-1.27-4.71,4.13,4.13,0,0,0-3.49-1.7,4.08,4.08,0,0,0-3.46,1.7,7.77,7.77,0,0,0-1.26,4.71,7.91,7.91,0,0,0,1.26,4.76A4.06,4.06,0,0,0,117.78,128.19Z"/><path class="cls-3" d="M135.07,106.15h-2.88v-4.77h9.58v26.32h3.1v4.9H132.19v-4.9h2.88Z"/><path class="cls-3" d="M149.72,115.14H146.8v-4.77h9.58v17.34h3.14v4.9H146.8v-4.9h2.92Zm-.64-10.61a3.58,3.58,0,0,1,1.07-2.61,3.5,3.5,0,0,1,2.58-1.08,3.61,3.61,0,0,1,2.64,1.09,3.53,3.53,0,0,1,1.1,2.6,3.48,3.48,0,0,1-1.1,2.57,3.63,3.63,0,0,1-2.64,1.08,3.6,3.6,0,0,1-3.65-3.65Z"/><path class="cls-3" d="M179.25,119.47a6.29,6.29,0,0,0-2-3.14,5.13,5.13,0,0,0-3.31-1.1,4.65,4.65,0,0,0-3.8,1.66,8.54,8.54,0,0,0,0,9.27,4.83,4.83,0,0,0,3.92,1.64,5.32,5.32,0,0,0,3.31-1,7.64,7.64,0,0,0,2.27-3.17l5.23,2.66a12.69,12.69,0,0,1-4.56,5.22,12.17,12.17,0,0,1-6.6,1.77A11,11,0,0,1,162,121.53a11.77,11.77,0,0,1,3.09-8.42,10.38,10.38,0,0,1,7.9-3.27,10.13,10.13,0,0,1,3.65.62,8.19,8.19,0,0,1,2.88,1.89v-2h4.77v9.1Z"/><path class="cls-3" d="M276.07,127.53h3.34v5.08H265.15v-5.08h3.32V106.24h-3.32v-4.86h14.77q6.2,0,9.05,2.33t2.86,7.38q0,5.12-2.89,7.54t-9,2.42h-3.85Zm0-21.29V116h1.45q3.36,0,4.83-1.14a5.42,5.42,0,0,0,0-7.43q-1.47-1.14-4.83-1.14Z"/><path class="cls-3" d="M297.65,115.14h-2.92v-4.77h9v5.27a8.42,8.42,0,0,1,3-4.41,9,9,0,0,1,5.23-1.4v6.88q-4,.11-5.81,1.77t-1.83,5.2v4h3.47v4.9H294.72v-4.9h2.92Z"/><path class="cls-3" d="M317.18,115.14h-2.92v-4.77h9.58v17.34H327v4.9H314.26v-4.9h2.92Zm-.64-10.61a3.58,3.58,0,0,1,1.07-2.61,3.5,3.5,0,0,1,2.58-1.08,3.61,3.61,0,0,1,2.64,1.09,3.53,3.53,0,0,1,1.1,2.6,3.48,3.48,0,0,1-1.1,2.57,3.63,3.63,0,0,1-2.64,1.08,3.6,3.6,0,0,1-3.65-3.65Z"/><path class="cls-3" d="M337.26,132.61l-6.81-17.47h-3.1v-4.77H340v4.77h-2.66L341,126l4-10.85h-2.7v-4.77h11.07v4.77h-3.21l-6.88,17.47Z"/><path class="cls-3" d="M368,132.61v-1.54a10,10,0,0,1-3,1.62,10.49,10.49,0,0,1-3.42.56,7,7,0,0,1-5.13-1.88,6.86,6.86,0,0,1-1.9-5.11,7.68,7.68,0,0,1,2.13-5.7,7.8,7.8,0,0,1,5.76-2.12,12,12,0,0,1,2.59.31,21.37,21.37,0,0,1,2.94.9V118.3a4.65,4.65,0,0,0-.95-3.2,3.72,3.72,0,0,0-2.9-1,5.4,5.4,0,0,0-2.38.51,4.83,4.83,0,0,0-1.79,1.52L355,115a5.92,5.92,0,0,1,3.07-3.8,12.66,12.66,0,0,1,6.21-1.36,17.24,17.24,0,0,1,5.8.83,6.66,6.66,0,0,1,3.43,2.53,5.62,5.62,0,0,1,.82,2,18.11,18.11,0,0,1,.25,3.57v9h3.14v4.9Zm0-5.93V124.1a7.81,7.81,0,0,0-1.87-1.05,5.09,5.09,0,0,0-1.82-.35,3.17,3.17,0,0,0-2.33.82,3.54,3.54,0,0,0-.12,4.42,2.42,2.42,0,0,0,1.9.8,4.57,4.57,0,0,0,2-.52A10.28,10.28,0,0,0,368,126.68Z"/><path class="cls-3" d="M388.63,124.7a4.89,4.89,0,0,0,.4,2.42,1.62,1.62,0,0,0,1.45.59,4,4,0,0,0,1-.14,6.65,6.65,0,0,0,1.18-.45v4.94a10.19,10.19,0,0,1-2.32.89,10.55,10.55,0,0,1-2.54.3q-3.27,0-4.59-1.38t-1.32-4.92v-11.8h-2.55v-4.77h2.55v-2.5l6.7-5.67v8.17h4.07v4.77h-4.07Z"/><path class="cls-3" d="M402.47,122.74a6.15,6.15,0,0,0,1.51,4.11,5,5,0,0,0,3.79,1.43,5.54,5.54,0,0,0,2.91-.75,5.46,5.46,0,0,0,2-2.22L417.9,127a9.46,9.46,0,0,1-4.11,4.61,13.22,13.22,0,0,1-6.72,1.65,11.17,11.17,0,0,1-8.34-3.21,13,13,0,0,1,0-17,11.18,11.18,0,0,1,8.35-3.2,10.75,10.75,0,0,1,8.34,3.37q3.09,3.37,3.09,9.17v.35Zm0-3.78h8.86a4.48,4.48,0,0,0-1.34-3.08,4.36,4.36,0,0,0-3.12-1.14,4.25,4.25,0,0,0-3.08,1.14A4.52,4.52,0,0,0,402.52,119Z"/></g></svg>